<svg width="442" height="22" viewBox="0 0 442 22" fill="none" xmlns="http://www.w3.org/2000/svg">
<line x1="26.5" y1="9.6001" x2="202.5" y2="9.60008" stroke="url(#paint0_linear_151_774)" stroke-linecap="round"/>
<path d="M217.64 8.5521C218.6 8.5521 219.363 8.68543 219.928 8.9521C220.504 9.21876 220.915 9.6561 221.16 10.2641C221.416 10.8721 221.544 11.6774 221.544 12.6801C221.544 13.6828 221.416 14.4881 221.16 15.0961C220.915 15.6934 220.504 16.1308 219.928 16.4081C219.363 16.6748 218.6 16.8081 217.64 16.8081C216.701 16.8081 215.944 16.6748 215.368 16.4081C214.803 16.1308 214.392 15.6934 214.136 15.0961C213.88 14.4881 213.752 13.6828 213.752 12.6801C213.752 11.6774 213.88 10.8721 214.136 10.2641C214.392 9.6561 214.803 9.21876 215.368 8.9521C215.944 8.68543 216.701 8.5521 217.64 8.5521ZM217.64 10.0241C217.171 10.0241 216.797 10.1041 216.52 10.2641C216.253 10.4134 216.061 10.6801 215.944 11.0641C215.827 11.4481 215.768 11.9868 215.768 12.6801C215.768 13.3734 215.827 13.9121 215.944 14.2961C216.061 14.6801 216.253 14.9468 216.52 15.0961C216.797 15.2454 217.171 15.3201 217.64 15.3201C218.12 15.3201 218.499 15.2454 218.776 15.0961C219.053 14.9468 219.245 14.6801 219.352 14.2961C219.469 13.9121 219.528 13.3734 219.528 12.6801C219.528 11.9868 219.469 11.4481 219.352 11.0641C219.245 10.6801 219.053 10.4134 218.776 10.2641C218.499 10.1041 218.12 10.0241 217.64 10.0241ZM224.873 8.7441L225.129 10.2801L225.305 10.5041V16.6001H223.369V8.7441H224.873ZM228.713 8.5521L228.521 10.3441H227.961C227.545 10.3441 227.124 10.4134 226.697 10.5521C226.271 10.6908 225.737 10.8988 225.097 11.1761L224.969 10.0401C225.524 9.57076 226.089 9.2081 226.665 8.9521C227.241 8.68543 227.796 8.5521 228.329 8.5521H228.713Z" fill="#4F4E4E"/>
<line x1="0.5" y1="-0.5" x2="176.5" y2="-0.5" transform="matrix(-1 -8.74228e-08 -8.74228e-08 1 416 10.1001)" stroke="url(#paint1_linear_151_774)" stroke-linecap="round"/>
<defs>
<linearGradient id="paint0_linear_151_774" x1="2.105" y1="10.1001" x2="335.75" y2="10.1" gradientUnits="userSpaceOnUse">
<stop stop-color="#4F4E4E" stop-opacity="0"/>
<stop offset="1" stop-color="#4F4E4E"/>
</linearGradient>
<linearGradient id="paint1_linear_151_774" x1="-23.895" y1="1.2415e-06" x2="309.75" y2="-5.30676e-05" gradientUnits="userSpaceOnUse">
<stop stop-color="#4F4E4E" stop-opacity="0"/>
<stop offset="1" stop-color="#4F4E4E"/>
</linearGradient>
</defs>
</svg>
